<svg width="142" height="38" viewBox="0 0 142 38" fill="none" xmlns="http://www.w3.org/2000/svg">
<path d="M56.168 12.1543H48.5508V15.2109H55.543V17.7109H48.5508V21.4121H56.5195V24H45.6113V9.60547H56.168V12.1543ZM65.2012 13.3555H68.1895L64.3516 24H61.4121L57.5938 13.3555H60.7188L62.9355 21.207L65.2012 13.3555ZM73.9707 15.3672C73.3262 15.3672 72.8249 15.569 72.4668 15.9727C72.1152 16.3763 71.8939 16.9232 71.8027 17.6133H76.1289C76.0833 16.8776 75.8587 16.321 75.4551 15.9434C75.0579 15.5592 74.5632 15.3672 73.9707 15.3672ZM73.9707 13.0723C74.8561 13.0723 75.6536 13.2383 76.3633 13.5703C77.0729 13.9023 77.6589 14.4264 78.1211 15.1426C78.5378 15.7741 78.8079 16.5065 78.9316 17.3398C79.0033 17.8281 79.0326 18.5312 79.0195 19.4492H71.7344C71.7734 20.5169 72.1087 21.2656 72.7402 21.6953C73.1243 21.9622 73.5866 22.0957 74.127 22.0957C74.6999 22.0957 75.1654 21.9329 75.5234 21.6074C75.7188 21.4316 75.8913 21.1875 76.041 20.875H78.8828C78.8112 21.5065 78.4824 22.1478 77.8965 22.7988C76.985 23.834 75.709 24.3516 74.0684 24.3516C72.7142 24.3516 71.5195 23.9154 70.4844 23.043C69.4492 22.1706 68.9316 20.7513 68.9316 18.7852C68.9316 16.9427 69.3971 15.5299 70.3281 14.5469C71.2656 13.5638 72.4798 13.0723 73.9707 13.0723ZM86.8027 13.1016C87.903 13.1016 88.8014 13.3913 89.498 13.9707C90.2012 14.5436 90.5527 15.4974 90.5527 16.832V24H87.7012V17.5254C87.7012 16.9655 87.6263 16.5358 87.4766 16.2363C87.2031 15.6895 86.6823 15.416 85.9141 15.416C84.9701 15.416 84.3223 15.8164 83.9707 16.6172C83.7884 17.0404 83.6973 17.5807 83.6973 18.2383V24H80.9238V13.375H83.6094V14.9277C83.9674 14.3809 84.306 13.987 84.625 13.7461C85.1979 13.3164 85.9238 13.1016 86.8027 13.1016ZM92.0371 15.4355V13.4531H93.5215V10.4844H96.2754V13.4531H98.0039V15.4355H96.2754V21.0605C96.2754 21.4967 96.3307 21.7702 96.4414 21.8809C96.5521 21.985 96.8906 22.0371 97.457 22.0371C97.5417 22.0371 97.6296 22.0371 97.7207 22.0371C97.8184 22.0306 97.9128 22.0241 98.0039 22.0176V24.0977L96.6855 24.1465C95.3704 24.1921 94.472 23.9642 93.9902 23.4629C93.6777 23.1439 93.5215 22.6523 93.5215 21.9883V15.4355H92.0371ZM108.775 18.5605H112.428L110.631 12.8965L108.775 18.5605ZM108.961 9.60547H112.359L117.457 24H114.195L113.268 21.041H107.965L106.969 24H103.824L108.961 9.60547ZM126.402 18.6777C126.402 17.8574 126.214 17.1315 125.836 16.5C125.465 15.8685 124.859 15.5527 124.02 15.5527C123.01 15.5527 122.317 16.0312 121.939 16.9883C121.744 17.4961 121.646 18.1406 121.646 18.9219C121.646 20.1589 121.975 21.028 122.633 21.5293C123.023 21.8223 123.486 21.9688 124.02 21.9688C124.794 21.9688 125.383 21.6693 125.787 21.0703C126.197 20.4714 126.402 19.6738 126.402 18.6777ZM124.82 13.1211C126.064 13.1211 127.115 13.5801 127.975 14.498C128.84 15.416 129.273 16.7637 129.273 18.541C129.273 20.416 128.85 21.8451 128.004 22.8281C127.164 23.8112 126.08 24.3027 124.752 24.3027C123.906 24.3027 123.202 24.0911 122.643 23.668C122.337 23.4336 122.037 23.0918 121.744 22.6426V28.1895H118.99V13.3555H121.656V14.9277C121.956 14.4655 122.275 14.1009 122.613 13.834C123.232 13.3587 123.967 13.1211 124.82 13.1211ZM138.629 18.6777C138.629 17.8574 138.44 17.1315 138.062 16.5C137.691 15.8685 137.086 15.5527 136.246 15.5527C135.237 15.5527 134.544 16.0312 134.166 16.9883C133.971 17.4961 133.873 18.1406 133.873 18.9219C133.873 20.1589 134.202 21.028 134.859 21.5293C135.25 21.8223 135.712 21.9688 136.246 21.9688C137.021 21.9688 137.61 21.6693 138.014 21.0703C138.424 20.4714 138.629 19.6738 138.629 18.6777ZM137.047 13.1211C138.29 13.1211 139.342 13.5801 140.201 14.498C141.067 15.416 141.5 16.7637 141.5 18.541C141.5 20.416 141.077 21.8451 140.23 22.8281C139.391 23.8112 138.307 24.3027 136.979 24.3027C136.132 24.3027 135.429 24.0911 134.869 23.668C134.563 23.4336 134.264 23.0918 133.971 22.6426V28.1895H131.217V13.3555H133.883V14.9277C134.182 14.4655 134.501 14.1009 134.84 13.834C135.458 13.3587 136.194 13.1211 137.047 13.1211Z" fill="black"/>
<g clip-path="url(#clip0_2:116)">
<path d="M33.0996 14.2307C32.8895 13.5015 32.3988 12.8854 31.735 12.5175C31.0713 12.1496 30.2888 12.0599 29.5591 12.2681L21.3338 14.6267C21.2878 14.6399 21.2394 14.6426 21.1922 14.6346C21.145 14.6266 21.1003 14.608 21.0613 14.5802C21.0223 14.5525 20.9901 14.5163 20.967 14.4744C20.9439 14.4324 20.9306 14.3858 20.9281 14.338C20.8623 12.3076 20.6023 10.2882 20.1517 8.30729C19.912 7.27192 19.2942 6.36345 18.4194 5.76004C18.0649 5.53205 17.6662 5.38163 17.2494 5.31866C16.8326 5.25569 16.4073 5.28159 16.0012 5.39467C15.684 5.46867 15.385 5.60602 15.1222 5.79847C14.8594 5.99092 14.6383 6.2345 14.472 6.51457C14.3057 6.79465 14.1977 7.10545 14.1545 7.4283C14.1114 7.75115 14.1339 8.0794 14.2208 8.39332C14.8896 10.6412 14.6699 13.06 13.607 15.1505C12.5441 17.2411 10.7191 18.8437 8.50877 19.6277L4.84003 20.6796C4.59678 20.7494 4.3912 20.9129 4.26851 21.1342C4.14583 21.3556 4.11609 21.6166 4.18584 21.8598L7.34183 32.866C7.41158 33.1093 7.5751 33.3149 7.79643 33.4376C8.01776 33.5602 8.27876 33.59 8.52201 33.5202C14.0642 31.931 16.0932 32.1896 17.8823 32.4151C19.4817 32.6947 21.1246 32.5896 22.6754 32.1087L30.6243 29.8294C31.0918 29.6951 31.5173 29.444 31.8608 29.0997C32.2044 28.7554 32.4545 28.3292 32.5878 27.8615C32.721 27.3937 32.7329 26.8997 32.6223 26.4261C32.5117 25.9524 32.2824 25.5147 31.9558 25.1543C32.507 24.6413 32.834 23.9319 32.8659 23.1797C32.8979 22.4274 32.6324 21.6928 32.1267 21.1349C32.6779 20.6219 33.0049 19.9125 33.0369 19.1603C33.0689 18.408 32.8033 17.6734 32.2977 17.1155C32.6845 16.7555 32.9642 16.2954 33.1057 15.7862C33.2473 15.2771 33.2451 14.7387 33.0996 14.2307Z" fill="black"/>
</g>
<defs>
<clipPath id="clip0_2:116">
<rect width="30.5327" height="30.5327" fill="white" transform="translate(0 8.41595) rotate(-16)"/>
</clipPath>
</defs>
</svg>
